<svg id="背景" xmlns="http://www.w3.org/2000/svg" viewBox="0 0 44 44"><defs><style>.cls-1{fill:#fff;}.cls-2{fill:#e83a37;fill-rule:evenodd;}</style></defs><title>移动端icon_for_ios</title><rect class="cls-1" width="44" height="44"/><path class="cls-2" d="M32.764,26.6a3.424,3.424,0,0,1,3.276-3.547,3.066,3.066,0,0,1,1.64.481A11.763,11.763,0,0,0,26.147,9.448c-0.141,0-.278.016-0.417,0.021a0.445,0.445,0,0,0,.036.071,2.98,2.98,0,1,1-5.443,1.677,0.481,0.481,0,0,0-.043-0.191,11.758,11.758,0,1,0,14.077,18.6A3.627,3.627,0,0,1,32.764,26.6Zm-11.256.1a4.146,4.146,0,1,1,4.146-4.146A4.151,4.151,0,0,1,21.508,26.7Zm10.771-7.709a0.49,0.49,0,0,1-.49-0.492V17.839a0.49,0.49,0,1,1,.98,0V18.5A0.491,0.491,0,0,1,32.279,18.988Z"/><path class="cls-2" d="M13.306,21.242a12.826,12.826,0,0,1,19.168-11.16A16.113,16.113,0,1,0,21.211,37.713a16.169,16.169,0,0,0,12.81-6.348A12.824,12.824,0,0,1,13.306,21.242Z"/></svg>