<svg id="背景" xmlns="http://www.w3.org/2000/svg" viewBox="0 0 44.875 44"><defs><style>.cls-1{fill:#fff;}.cls-2{fill:#e83a37;fill-rule:evenodd;}</style></defs><title>移动端icon_for_ios</title><rect class="cls-1" width="44" height="44"/><path class="cls-2" d="M36.52,35.871a0.6,0.6,0,0,0-.7-0.292c-0.385.1-.769,0.2-1.154,0.3l-0.4.1-2.433-8.608c0.08-.063.151-0.115,0.219-0.174a3.756,3.756,0,0,0,.768-0.954,7.11,7.11,0,0,0,.71-1.71,14.252,14.252,0,0,0,.48-3.667c0.012-.766-0.016-1.532-0.071-2.3-0.041-.578-0.084-1.157-0.15-1.733-0.071-.625-0.163-1.248-0.26-1.87a18.263,18.263,0,0,0-.5-2.278,51.329,51.329,0,0,0-2.2-6.032A1.534,1.534,0,0,0,30.7,6.435a1.631,1.631,0,0,0-1.843-.682c-0.856.239-1.715,0.467-2.573,0.7q-1.855.5-3.711,1.006a1.645,1.645,0,0,0-1.221,1.527c0,0.14.012,0.28,0.019,0.42a15.189,15.189,0,0,0,.183,1.646q0.156,0.958.339,1.912a20.039,20.039,0,0,0,.524,2.2A47.254,47.254,0,0,0,24.107,19.7,27.58,27.58,0,0,0,25.7,22.93a20.5,20.5,0,0,0,1.775,2.6,7.857,7.857,0,0,0,1.332,1.315,3.559,3.559,0,0,0,1.4.677c0.135,0.029.272,0.044,0.424,0.068q1.227,4.339,2.458,8.7l-0.244.066c-0.583.153-1.167,0.3-1.749,0.46a0.592,0.592,0,0,0-.444.564,0.606,0.606,0,0,0,.409.605c0.025,0.009.049,0.02,0.074,0.03h0.241c0.228-.063.454-0.13,0.682-0.189q2-.524,4-1.044a0.656,0.656,0,0,0,.449-0.311,1.78,1.78,0,0,0,.072-0.17V36.029A1.592,1.592,0,0,0,36.52,35.871ZM23.207,13.362c-0.035-.165-0.074-0.322-0.1-0.482-0.136-.776-0.282-1.55-0.4-2.328-0.072-.474-0.1-0.954-0.144-1.432a0.428,0.428,0,0,1,.366-0.489l2.224-.6,3.957-1.073a0.987,0.987,0,0,1,.209-0.041,0.4,0.4,0,0,1,.41.266c0.262,0.635.531,1.267,0.783,1.906q0.69,1.746,1.237,3.545c0.014,0.047.026,0.094,0.044,0.158Z"/><path class="cls-2" d="M20.906,8.757A1.589,1.589,0,0,0,19.7,7.428Q16.6,6.58,13.506,5.746c-0.146-.04-0.293-0.073-0.439-0.109H12.825c-0.034.009-.067,0.022-0.1,0.028a1.628,1.628,0,0,0-1.292,1.021c-0.018.041-.033,0.084-0.052,0.125Q10.7,8.371,10.129,9.974c-0.361,1-.7,2.015-0.975,3.048a27.69,27.69,0,0,0-.748,4.633c-0.056.622-.083,1.248-0.113,1.872A18.638,18.638,0,0,0,8.371,22.5a12.164,12.164,0,0,0,.41,2.116,6.536,6.536,0,0,0,.888,1.923,2.8,2.8,0,0,0,.858.846,0.074,0.074,0,0,1,.015.03L8.165,35.871c-0.043-.009-0.07-0.014-0.095-0.02-0.437-.114-0.874-0.224-1.309-0.342a0.607,0.607,0,0,0-.75.4A0.458,0.458,0,0,1,5.96,36v0.19A0.274,0.274,0,0,1,6,36.258a0.642,0.642,0,0,0,.505.452q2.061,0.535,4.122,1.078c0.177,0.046.353,0.1,0.531,0.138a0.612,0.612,0,1,0,.293-1.188c-0.488-.13-0.976-0.256-1.464-0.383L9.335,36.18q1.216-4.327,2.426-8.628c0.112-.021.208-0.036,0.3-0.057a3.55,3.55,0,0,0,1.393-.669A7.6,7.6,0,0,0,14.8,25.5a21.251,21.251,0,0,0,2.394-3.73A40.967,40.967,0,0,0,19.047,17.5,25.8,25.8,0,0,0,20.3,13.4a31.689,31.689,0,0,0,.621-4.119A2.173,2.173,0,0,0,20.906,8.757Zm-1.281,1.4c-0.1.85-.251,1.692-0.417,2.532-0.01.049-.022,0.1-0.036,0.159l-8.537-.569c0.029-.1.053-0.186,0.081-0.272q0.769-2.39,1.767-4.692,0.03-.069.058-0.137A0.424,0.424,0,0,1,13.079,6.9c0.195,0.05.388,0.1,0.583,0.157q2.845,0.772,5.69,1.544a0.5,0.5,0,0,1,.275.157,0.407,0.407,0,0,1,.1.3C19.691,9.423,19.667,9.79,19.625,10.154Z"/></svg>