<svg id="背景" xmlns="http://www.w3.org/2000/svg" viewBox="0 0 44 44"><defs><style>.cls-1{fill:#fff;}.cls-2{fill:#e83a37;fill-rule:evenodd;}</style></defs><title>移动端icon_for_ios</title><rect class="cls-1" width="44" height="44"/><path class="cls-2" d="M26.316,14.3v13.7l1.9,0.473,4.063-16.3L22.148,9.657l-0.931,3.737h4.192a0.908,0.908,0,0,1,.908.908h0Z"/><path class="cls-2" d="M20.826,7.456l-1.481,5.938h1.4L21.6,9.988a0.908,0.908,0,0,1,1.1-.661l9.25,2.306a0.908,0.908,0,0,1,.661,1.1L28.765,28.149a0.908,0.908,0,0,1-1.1.661l-1.349-.336v1.4l3.221,0.8,4.942-19.821-13.654-3.4h0Z"/><polygon class="cls-2" points="17.919 27.014 19.509 24.515 17.919 22.017 16.328 24.515 17.919 27.014 17.919 27.014"/><path class="cls-2" d="M12.954,33.089h9.966V16.674H12.954V33.089Zm2.695-15.61h0.227a0.227,0.227,0,1,1,0,.454H15.649A0.227,0.227,0,0,1,15.649,17.48ZM17.312,20.9a0.84,0.84,0,0,1,1.2,0l2.1,3a0.872,0.872,0,0,1,0,1.219l-2.1,3a0.84,0.84,0,0,1-1.2,0l-2.1-3a0.872,0.872,0,0,1,0-1.219Zm-3.705-3.2a0.229,0.229,0,0,1,.214-0.227h0.956a0.23,0.23,0,0,1,0,.454H13.989V20.2a0.194,0.194,0,1,1-.383,0v-2.5Z"/><path class="cls-2" d="M25.342,13.36H10.485a0.968,0.968,0,0,0-.965.965V35.58a0.968,0.968,0,0,0,.965.965H25.342a0.968,0.968,0,0,0,.965-0.965V14.325A0.968,0.968,0,0,0,25.342,13.36ZM23.593,32.97a0.854,0.854,0,0,1-.852.851H13.1a0.854,0.854,0,0,1-.852-0.851v-16a0.854,0.854,0,0,1,.852-0.851h9.646a0.854,0.854,0,0,1,.852.851v16Z"/></svg>