<svg id="背景" xmlns="http://www.w3.org/2000/svg" viewBox="0 0 44 44"><defs><style>.cls-1{fill:#fff;}.cls-2{fill:#e83a37;fill-rule:evenodd;}</style></defs><title>移动端icon_for_ios</title><rect class="cls-1" width="44" height="44"/><path class="cls-2" d="M17.97,7.049h0Z"/><path class="cls-2" d="M31.911,20.991v0Z"/><path class="cls-2" d="M30.792,7.049H18.005a1.933,1.933,0,0,0-1.217.486L2.845,21.488a1.558,1.558,0,0,0-.031,2.2L15.28,36.163a1.5,1.5,0,0,0,1.071.44,1.6,1.6,0,0,0,1.129-.472L31.424,22.18a1.961,1.961,0,0,0,.488-1.206V8.168A1.121,1.121,0,0,0,30.792,7.049Zm-5.7,9.672a2.845,2.845,0,1,1,2.833-2.845A2.839,2.839,0,0,1,25.1,16.721Z"/><path class="cls-2" d="M21.035,34.366l8.639-8.644,1.1-1.1v9.744a1.1,1.1,0,0,1-1.1,1.1H19.937l1.1-1.1h0Z"/></svg>